<?xml version="1.0" encoding="UTF-8"?>
<svg width="63px" height="80px" viewBox="0 0 63 80" version="1.1" xmlns="http://www.w3.org/2000/svg" xmlns:xlink="http://www.w3.org/1999/xlink">
    <!-- Generator: Sketch 43.2 (39069) - http://www.bohemiancoding.com/sketch -->
    <title>apple</title>
    <desc>Created with Sketch.</desc>
    <defs></defs>
    <g id="Page-1" stroke="none" stroke-width="1" fill="none" fill-rule="evenodd">
        <g id="apple" fill-rule="nonzero" fill="#CCD0D2">
            <path d="M42.8419178,12.1391781 C45.8473973,8.92164384 47.880274,4.45452055 47.3238356,0 C42.9939726,0.154520548 37.7463014,2.54164384 34.6383562,5.75890411 C31.8523288,8.60712329 29.4131507,13.1591781 30.0641096,17.5263014 C34.8956164,17.8531507 39.8315068,15.3515068 42.8419178,12.1391781 Z M52.0630137,42.9021918 C51.9706849,32.9156164 59.969589,28.1191781 60.3238356,27.8873973 C55.8268493,21.1057534 48.8232877,20.1778082 46.3290411,20.0731507 C40.3654795,19.4471233 34.7010959,23.6846575 31.6734247,23.6846575 C28.6580822,23.6846575 23.9939726,20.1553425 19.0479452,20.250137 C12.5457534,20.3572603 6.55452055,24.1435616 3.21506849,30.1443836 C-3.53945205,42.2164384 1.48383562,60.0994521 8.06575342,69.8915068 C11.2832877,74.6852055 15.1142466,80.0627397 20.1449315,79.8682192 C25.0010959,79.6736986 26.8317808,76.6383562 32.6906849,76.6383562 C38.5520548,76.6383562 40.1931507,79.8682192 45.3210959,79.7709589 C50.5389041,79.6736986 53.8410959,74.8849315 57.0312329,70.0761644 C60.7224658,64.5167123 62.2441096,59.1342466 62.3312329,58.8624658 C62.2191781,58.7975342 52.170137,54.8443836 52.0630137,42.9021918 Z" id="Shape"></path>
        </g>
    </g>
</svg>