<?xml version="1.0" encoding="UTF-8"?>
<svg width="80px" height="80px" viewBox="0 0 80 80" version="1.1" xmlns="http://www.w3.org/2000/svg" xmlns:xlink="http://www.w3.org/1999/xlink">
    <!-- Generator: Sketch 43.2 (39069) - http://www.bohemiancoding.com/sketch -->
    <title>logo</title>
    <desc>Created with Sketch.</desc>
    <defs></defs>
    <g id="Page-1" stroke="none" stroke-width="1" fill="none" fill-rule="evenodd">
        <g id="logo" fill-rule="nonzero">
            <path d="M40,0 C62.091,0 80,17.909 80,40 C80,62.091 62.091,80 40,80 C17.909,80 0,62.091 0,40 C0,17.909 17.909,0 40,0 Z" id="Shape" fill="#FFFFFF"></path>
            <g id="cube" transform="translate(24.000000, 23.000000)">
                <g id="Group" transform="translate(1.587866, 2.255859)" fill="#BCBCBC">
                    <path d="M15.1839012,31.1035156 L14.6359833,31.1035156 L14.6359833,30.7001953 L15.1839012,30.7001953 L15.1839012,31.1035156 Z M15.1839012,29.6064453 L14.6359833,29.6064453 L14.6359833,28.5126953 L15.1839012,28.5126953 L15.1839012,29.6064453 Z M15.1839012,27.4121094 L14.6359833,27.4121094 L14.6359833,26.3183594 L15.1839012,26.3183594 L15.1839012,27.4121094 Z M15.1839012,25.2246094 L14.6359833,25.2246094 L14.6359833,24.1308594 L15.1839012,24.1308594 L15.1839012,25.2246094 Z M15.1839012,23.0302734 L14.6359833,23.0302734 L14.6359833,21.9365234 L15.1839012,21.9365234 L15.1839012,23.0302734 Z M15.1839012,20.8427734 L14.6359833,20.8427734 L14.6359833,19.7490234 L15.1839012,19.7490234 L15.1839012,20.8427734 Z M15.1839012,18.6484375 L14.6359833,18.6484375 L14.6359833,17.5546875 L15.1839012,17.5546875 L15.1839012,18.6484375 Z M15.1839012,16.4541016 L14.6359833,16.4541016 L14.6359833,15.3603516 L15.1839012,15.3603516 L15.1839012,16.4541016 Z M15.1839012,14.2666016 L14.6359833,14.2666016 L14.6359833,13.1728516 L15.1839012,13.1728516 L15.1839012,14.2666016 Z M15.1839012,12.0722656 L14.6359833,12.0722656 L14.6359833,10.9785156 L15.1839012,10.9785156 L15.1839012,12.0722656 Z M15.1839012,9.87792969 L14.6359833,9.87792969 L14.6359833,8.78417969 L15.1839012,8.78417969 L15.1839012,9.87792969 Z M15.1839012,7.69042969 L14.6359833,7.69042969 L14.6359833,6.59667969 L15.1839012,6.59667969 L15.1839012,7.69042969 Z M15.1839012,5.49609375 L14.6359833,5.49609375 L14.6359833,4.40234375 L15.1839012,4.40234375 L15.1839012,5.49609375 Z M15.1839012,3.30175781 L14.6359833,3.30175781 L14.6359833,2.20800781 L15.1839012,2.20800781 L15.1839012,3.30175781 Z M15.1839012,1.11425781 L14.6359833,1.11425781 L14.6359833,0.0205078125 L15.1839012,0.0205078125 L15.1839012,1.11425781 Z" id="Shape"></path>
                    <path d="M1.24958159,6.88378906 L1.00104603,6.3984375 L2.05041841,5.87207031 L2.29895397,6.35742188 L1.24958159,6.88378906 Z M3.34142259,5.83105469 L3.09288703,5.34570313 L4.14225941,4.81933594 L4.39079498,5.3046875 L3.34142259,5.83105469 Z M5.44016736,4.77832031 L5.1916318,4.29296875 L6.24100418,3.76660156 L6.48953975,4.25195313 L5.44016736,4.77832031 Z M7.53200837,3.72558594 L7.2834728,3.24023438 L8.33284519,2.71386719 L8.58138075,3.19921875 L7.53200837,3.72558594 Z M9.63075314,2.67285156 L9.38221757,2.1875 L10.43159,1.66113281 L10.6801255,2.14648438 L9.63075314,2.67285156 Z M11.7225941,1.62011719 L11.4740586,1.13476563 L12.523431,0.608398438 L12.7719665,1.09375 L11.7225941,1.62011719 Z M13.8213389,0.567382812 L13.5728033,0.08203125 L13.6487448,0.041015625 L13.8972803,0.526367187 L13.8213389,0.567382812 Z" id="Shape"></path>
                    <path d="M27.3803347,6.43945312 L26.3378661,5.89941406 L26.5933054,5.4140625 L27.6357741,5.95410156 L27.3803347,6.43945312 Z M25.2953975,5.36621094 L24.2529289,4.82617188 L24.5083682,4.34082031 L25.5508368,4.88085938 L25.2953975,5.36621094 Z M23.2104603,4.29296875 L22.1679916,3.75292969 L22.423431,3.26757813 L23.4658996,3.80761719 L23.2104603,4.29296875 Z M21.1324268,3.21289063 L20.0899582,2.67285156 L20.3453975,2.1875 L21.3878661,2.72753906 L21.1324268,3.21289063 Z M19.0474895,2.13964844 L18.0050209,1.59960938 L18.2604603,1.11425781 L19.3029289,1.65429687 L19.0474895,2.13964844 Z M16.9625523,1.05957031 L15.9200837,0.51953125 L16.175523,0.0341796875 L17.2179916,0.57421875 L16.9625523,1.05957031 Z" id="Shape"></path>
                    <path d="M16.707113,14.7314453 L16.4309623,14.2597656 L17.3353556,13.7333984 L17.6115063,14.2050781 L16.707113,14.7314453 Z M18.5158996,13.6855469 L18.239749,13.2138672 L19.1441423,12.6875 L19.4202929,13.1591797 L18.5158996,13.6855469 Z M20.33159,12.6328125 L20.0554393,12.1611328 L20.9598326,11.6347656 L21.2359833,12.1064453 L20.33159,12.6328125 Z M22.1472803,11.5869141 L21.8711297,11.1152344 L22.775523,10.5888672 L23.0516736,11.0605469 L22.1472803,11.5869141 Z M23.9560669,10.5410156 L23.6799163,10.0693359 L24.5843096,9.54296875 L24.8604603,10.0146484 L23.9560669,10.5410156 Z M25.7717573,9.49511719 L25.4956067,9.0234375 L26.4,8.49707031 L26.6761506,8.96875 L25.7717573,9.49511719 Z M27.5874477,8.44238281 L27.3112971,7.97070313 L28.2156904,7.44433594 L28.491841,7.91601563 L27.5874477,8.44238281 Z" id="Shape"></path>
                    <path d="M14.0284519,15.2236328 L13.1171548,14.7109375 L13.3864017,14.2324219 L14.2976987,14.7451172 L14.0284519,15.2236328 Z M12.198954,14.1982422 L11.2876569,13.6855469 L11.5569038,13.2070313 L12.4682008,13.7197266 L12.198954,14.1982422 Z M10.3694561,13.1728516 L9.458159,12.6601563 L9.72740586,12.1816406 L10.6387029,12.6943359 L10.3694561,13.1728516 Z M8.53995816,12.1542969 L7.62866109,11.6416016 L7.89790795,11.1630859 L8.80920502,11.6757813 L8.53995816,12.1542969 Z M6.71046025,11.1289063 L5.79916318,10.6162109 L6.06841004,10.1376953 L6.97970711,10.6503906 L6.71046025,11.1289063 Z M4.88786611,10.1035156 L3.97656904,9.59082031 L4.2458159,9.11230469 L5.15711297,9.625 L4.88786611,10.1035156 Z M3.0583682,9.08496094 L2.14707113,8.57226563 L2.41631799,8.09375 L3.32761506,8.60644531 L3.0583682,9.08496094 Z M1.22887029,8.05957031 L0.987238494,7.92285156 L1.25648536,7.44433594 L1.49811715,7.58105469 L1.22887029,8.05957031 Z" id="Shape"></path>
                    <path d="M29.7646543,24.4042969 L29.2167364,24.4042969 L29.2167364,23.8095703 L29.7646543,23.8095703 L29.7646543,24.4042969 Z M29.7646543,22.7705078 L29.2167364,22.7705078 L29.2167364,21.7314453 L29.7646543,21.7314453 L29.7646543,22.7705078 Z M29.7646543,20.6923828 L29.2167364,20.6923828 L29.2167364,19.6533203 L29.7646543,19.6533203 L29.7646543,20.6923828 Z M29.7646543,18.6142578 L29.2167364,18.6142578 L29.2167364,17.5751953 L29.7646543,17.5751953 L29.7646543,18.6142578 Z M29.7646543,16.5361328 L29.2167364,16.5361328 L29.2167364,15.4970703 L29.7646543,15.4970703 L29.7646543,16.5361328 Z M29.7646543,14.4511719 L29.2167364,14.4511719 L29.2167364,13.4121094 L29.7646543,13.4121094 L29.7646543,14.4511719 Z M29.7646543,12.3730469 L29.2167364,12.3730469 L29.2167364,11.3339844 L29.7646543,11.3339844 L29.7646543,12.3730469 Z M29.7646543,10.2949219 L29.2167364,10.2949219 L29.2167364,9.25585938 L29.7646543,9.25585938 L29.7646543,10.2949219 Z M29.7646543,8.21679688 L29.2167364,8.21679688 L29.2167364,7.17773438 L29.7646543,7.17773438 L29.7646543,8.21679688 Z" id="Shape"></path>
                    <path d="M0.603148037,24.4042969 L0.0552301255,24.4042969 L0.0552301255,23.8095703 L0.603148037,23.8095703 L0.603148037,24.4042969 Z M0.603148037,22.7705078 L0.0552301255,22.7705078 L0.0552301255,21.7314453 L0.603148037,21.7314453 L0.603148037,22.7705078 Z M0.603148037,20.6923828 L0.0552301255,20.6923828 L0.0552301255,19.6533203 L0.603148037,19.6533203 L0.603148037,20.6923828 Z M0.603148037,18.6142578 L0.0552301255,18.6142578 L0.0552301255,17.5751953 L0.603148037,17.5751953 L0.603148037,18.6142578 Z M0.603148037,16.5361328 L0.0552301255,16.5361328 L0.0552301255,15.4970703 L0.603148037,15.4970703 L0.603148037,16.5361328 Z M0.603148037,14.4511719 L0.0552301255,14.4511719 L0.0552301255,13.4121094 L0.603148037,13.4121094 L0.603148037,14.4511719 Z M0.603148037,12.3730469 L0.0552301255,12.3730469 L0.0552301255,11.3339844 L0.603148037,11.3339844 L0.603148037,12.3730469 Z M0.603148037,10.2949219 L0.0552301255,10.2949219 L0.0552301255,9.25585938 L0.603148037,9.25585938 L0.603148037,10.2949219 Z M0.603148037,8.21679688 L0.0552301255,8.21679688 L0.0552301255,7.17773438 L0.603148037,7.17773438 L0.603148037,8.21679688 Z" id="Shape"></path>
                    <path d="M1.8709205,22.1552734 L1.62238494,21.6699219 L2.66485356,21.1435547 L2.91338912,21.6289063 L1.8709205,22.1552734 Z M3.96276151,21.1025391 L3.71422594,20.6171875 L4.75669456,20.0908203 L5.00523013,20.5761719 L3.96276151,21.1025391 Z M6.05460251,20.0498047 L5.80606695,19.5644531 L6.84853556,19.0380859 L7.09707113,19.5234375 L6.05460251,20.0498047 Z M8.14644351,18.9970703 L7.89790795,18.5117188 L8.94037657,17.9853516 L9.18891213,18.4707031 L8.14644351,18.9970703 Z M10.2382845,17.9443359 L9.98974895,17.4589844 L11.0322176,16.9326172 L11.2807531,17.4179688 L10.2382845,17.9443359 Z M12.3301255,16.8984375 L12.08159,16.40625 L13.1240586,15.8798828 L13.3725941,16.3652344 L12.3301255,16.8984375 Z" id="Shape"></path>
                    <path d="M27.7048117,22.1552734 L26.6623431,21.6289063 L26.9108787,21.1435547 L27.9533473,21.6699219 L27.7048117,22.1552734 Z M25.6129707,21.1025391 L24.5705021,20.5761719 L24.8190377,20.0908203 L25.8615063,20.6171875 L25.6129707,21.1025391 Z M23.5211297,20.0498047 L22.4786611,19.5234375 L22.7271967,19.0380859 L23.7696653,19.5644531 L23.5211297,20.0498047 Z M21.4292887,18.9970703 L20.3868201,18.4707031 L20.6353556,17.9853516 L21.6778243,18.5117188 L21.4292887,18.9970703 Z M19.3374477,17.9443359 L18.2949791,17.4179688 L18.5435146,16.9326172 L19.5859833,17.4589844 L19.3374477,17.9443359 Z M17.2456067,16.8984375 L16.2031381,16.3720703 L16.4516736,15.8867188 L17.4941423,16.4130859 L17.2456067,16.8984375 Z" id="Shape"></path>
                    <path d="M16.3135983,30.5361328 L16.0374477,30.0644531 L16.9487448,29.5380859 L17.2248954,30.0097656 L16.3135983,30.5361328 Z M18.1292887,29.4902344 L17.8531381,29.0185547 L18.7644351,28.4921875 L19.0405858,28.9638672 L18.1292887,29.4902344 Z M19.9449791,28.4375 L19.6688285,27.9658203 L20.5801255,27.4394531 L20.8562762,27.9111328 L19.9449791,28.4375 Z M21.7606695,27.3916016 L21.4845188,26.9199219 L22.3958159,26.3935547 L22.6719665,26.8652344 L21.7606695,27.3916016 Z M23.5832636,26.3388672 L23.307113,25.8671875 L24.21841,25.3408203 L24.4945607,25.8125 L23.5832636,26.3388672 Z M25.398954,25.2929688 L25.1228033,24.8212891 L26.0341004,24.2949219 L26.310251,24.7666016 L25.398954,25.2929688 Z M27.2146444,24.2402344 L26.9384937,23.7685547 L27.8497908,23.2421875 L28.1259414,23.7138672 L27.2146444,24.2402344 Z" id="Shape"></path>
                    <path d="M13.9456067,30.8027344 L13.0343096,30.2832031 L13.3104603,29.8115234 L14.2217573,30.3310547 L13.9456067,30.8027344 Z M12.1230126,29.7705078 L11.2117155,29.2509766 L11.4878661,28.7792969 L12.3991632,29.2988281 L12.1230126,29.7705078 Z M10.2935146,28.7314453 L9.38221757,28.2119141 L9.6583682,27.7402344 L10.5696653,28.2597656 L10.2935146,28.7314453 Z M8.4709205,27.6992188 L7.55962343,27.1796875 L7.83577406,26.7080078 L8.74707113,27.2275391 L8.4709205,27.6992188 Z M6.64832636,26.6601563 L5.73702929,26.140625 L6.01317992,25.6689453 L6.92447699,26.1884766 L6.64832636,26.6601563 Z M4.81882845,25.6279297 L3.90753138,25.1083984 L4.18368201,24.6367188 L5.09497908,25.15625 L4.81882845,25.6279297 Z M2.99623431,24.5888672 L2.08493724,24.0693359 L2.36108787,23.5976563 L3.27238494,24.1171875 L2.99623431,24.5888672 Z M1.17364017,23.5566406 L1.00104603,23.4609375 L1.27719665,22.9892578 L1.44979079,23.0849609 L1.17364017,23.5566406 Z" id="Shape"></path>
                </g>
                <g id="Group" fill="#E81241">
                    <ellipse id="Oval" cx="31.0807531" cy="26.4140625" rx="1.87782427" ry="1.859375"></ellipse>
                    <ellipse id="Oval" cx="1.91924686" cy="26.4140625" rx="1.87782427" ry="1.859375"></ellipse>
                    <ellipse id="Oval" cx="16.5" cy="17.609375" rx="1.87782427" ry="1.859375"></ellipse>
                    <ellipse id="Oval" cx="16.5" cy="1.859375" rx="1.87782427" ry="1.859375"></ellipse>
                    <ellipse id="Oval" cx="16.5" cy="33.140625" rx="1.87782427" ry="1.859375"></ellipse>
                    <ellipse id="Oval" cx="1.91924686" cy="9.1875" rx="1.87782427" ry="1.859375"></ellipse>
                    <ellipse id="Oval" cx="31.0807531" cy="9.1875" rx="1.87782427" ry="1.859375"></ellipse>
                </g>
            </g>
        </g>
    </g>
</svg>