<?xml version="1.0" encoding="UTF-8"?>
<svg width="80px" height="80px" viewBox="0 0 80 80" version="1.1" xmlns="http://www.w3.org/2000/svg" xmlns:xlink="http://www.w3.org/1999/xlink">
    <!-- Generator: Sketch 43.2 (39069) - http://www.bohemiancoding.com/sketch -->
    <title>logo</title>
    <desc>Created with Sketch.</desc>
    <defs></defs>
    <g id="Page-1" stroke="none" stroke-width="1" fill="none" fill-rule="evenodd">
        <g id="logo" fill-rule="nonzero">
            <path d="M40,0 C62.091,0 80,17.909 80,40 C80,62.091 62.091,80 40,80 C17.909,80 0,62.091 0,40 C0,17.909 17.909,0 40,0 Z" id="Shape" fill="#FFFFFF"></path>
            <g id="smartphone" transform="translate(31.000000, 25.000000)">
                <path d="M14.9595882,30 L3.04041176,30 C1.36111765,30 0,28.6701724 0,27.0294828 L0,2.97051724 C0,1.32982759 1.36111765,0 3.04041176,0 L14.9595882,0 C16.6388824,0 18,1.32982759 18,2.97051724 L18,27.0294828 C18,28.6701724 16.6388824,30 14.9595882,30 Z" id="Shape" fill="#38454F"></path>
                <rect id="Rectangle-path" fill="#546A79" x="1.58823529" y="3.10344828" width="14.8235294" height="22.2413793"></rect>
                <g id="Group" transform="translate(2.647059, 4.137931)" fill="#78909B">
                    <path d="M0.529411765,3.10344828 C0.664941176,3.10344828 0.800470588,3.05275862 0.903705882,2.95189655 L3.02135294,0.882931034 C3.22835294,0.680689655 3.22835294,0.353793103 3.02135294,0.151551724 C2.81435294,-0.0506896552 2.47976471,-0.0506896552 2.27276471,0.151551724 L0.155117647,2.22051724 C-0.0518823529,2.42275862 -0.0518823529,2.74965517 0.155117647,2.95189655 C0.258352941,3.05275862 0.393882353,3.10344828 0.529411765,3.10344828 Z" id="Shape"></path>
                    <path d="M0.529411765,5.68965517 C0.664941176,5.68965517 0.800470588,5.63896552 0.903705882,5.53810345 L1.96252941,4.50362069 C2.16952941,4.30137931 2.16952941,3.97448276 1.96252941,3.77224138 C1.75552941,3.57 1.42094118,3.57 1.21394118,3.77224138 L0.155117647,4.80672414 C-0.0518823529,5.00896552 -0.0518823529,5.33586207 0.155117647,5.53810345 C0.258352941,5.63896552 0.393882353,5.68965517 0.529411765,5.68965517 Z" id="Shape"></path>
                    <path d="M2.27117647,2.7362069 C2.17535294,2.83396552 2.11764706,2.96327586 2.11764706,3.10344828 C2.11764706,3.23793103 2.17535294,3.37241379 2.27117647,3.47068966 C2.37123529,3.5637931 2.50941176,3.62068966 2.64705882,3.62068966 C2.78470588,3.62068966 2.92235294,3.5637931 3.02294118,3.47068966 C3.11823529,3.37241379 3.17647059,3.23793103 3.17647059,3.10344828 C3.17647059,2.96896552 3.11823529,2.83396552 3.02294118,2.7362069 C2.82176471,2.54482759 2.46705882,2.54482759 2.27117647,2.7362069 Z" id="Shape"></path>
                    <path d="M3.33158824,2.43465517 C3.43482353,2.53551724 3.57035294,2.5862069 3.70588235,2.5862069 C3.84141176,2.5862069 3.97694118,2.53551724 4.08017647,2.43465517 L5.66841176,0.882931034 C5.87541176,0.680689655 5.87541176,0.353793103 5.66841176,0.151551724 C5.46141176,-0.0506896552 5.12682353,-0.0506896552 4.91982353,0.151551724 L3.33158824,1.70327586 C3.12458824,1.90551724 3.12458824,2.23241379 3.33158824,2.43465517 Z" id="Shape"></path>
                    <path d="M4.91982353,2.73775862 L0.155117647,7.39293103 C-0.0518823529,7.59517241 -0.0518823529,7.92206897 0.155117647,8.12431034 C0.258352941,8.22517241 0.393882353,8.27586207 0.529411765,8.27586207 C0.664941176,8.27586207 0.800470588,8.22517241 0.903705882,8.12431034 L5.66841176,3.46913793 C5.87541176,3.26689655 5.87541176,2.94 5.66841176,2.73775862 C5.46141176,2.53551724 5.12682353,2.53551724 4.91982353,2.73775862 Z" id="Shape"></path>
                    <path d="M5.97705882,1.70172414 C5.88123529,1.79948276 5.82352941,1.93448276 5.82352941,2.06896552 C5.82352941,2.20344828 5.88123529,2.33793103 5.97705882,2.4362069 C6.07711765,2.52931034 6.21529412,2.5862069 6.35294118,2.5862069 C6.49058824,2.5862069 6.62823529,2.52931034 6.72882353,2.4362069 C6.82411765,2.33793103 6.88235294,2.20344828 6.88235294,2.06896552 C6.88235294,1.93448276 6.82411765,1.79948276 6.72882353,1.70172414 C6.53294118,1.51034483 6.17294118,1.51034483 5.97705882,1.70172414 Z" id="Shape"></path>
                    <path d="M8.31547059,0.151551724 C8.10847059,-0.0506896552 7.77388235,-0.0506896552 7.56688235,0.151551724 L7.03747059,0.668793103 C6.83047059,0.871034483 6.83047059,1.19793103 7.03747059,1.40017241 C7.14070588,1.50103448 7.27623529,1.55172414 7.41176471,1.55172414 C7.54729412,1.55172414 7.68282353,1.50103448 7.78605882,1.40017241 L8.31547059,0.882931034 C8.52247059,0.680689655 8.52247059,0.353793103 8.31547059,0.151551724 Z" id="Shape"></path>
                </g>
                <path d="M10.5882353,2.06896552 L7.41176471,2.06896552 C7.119,2.06896552 6.88235294,1.83775862 6.88235294,1.55172414 C6.88235294,1.26568966 7.119,1.03448276 7.41176471,1.03448276 L10.5882353,1.03448276 C10.881,1.03448276 11.1176471,1.26568966 11.1176471,1.55172414 C11.1176471,1.83775862 10.881,2.06896552 10.5882353,2.06896552 Z" id="Shape" fill="#546A79"></path>
                <path d="M15.3529412,2.06896552 L14.8235294,2.06896552 C14.5307647,2.06896552 14.2941176,1.83775862 14.2941176,1.55172414 C14.2941176,1.26568966 14.5307647,1.03448276 14.8235294,1.03448276 L15.3529412,1.03448276 C15.6457059,1.03448276 15.8823529,1.26568966 15.8823529,1.55172414 C15.8823529,1.83775862 15.6457059,2.06896552 15.3529412,2.06896552 Z" id="Shape" fill="#546A79"></path>
                <path d="M13.2352941,2.06896552 L12.7058824,2.06896552 C12.4131176,2.06896552 12.1764706,1.83775862 12.1764706,1.55172414 C12.1764706,1.26568966 12.4131176,1.03448276 12.7058824,1.03448276 L13.2352941,1.03448276 C13.5280588,1.03448276 13.7647059,1.26568966 13.7647059,1.55172414 C13.7647059,1.83775862 13.5280588,2.06896552 13.2352941,2.06896552 Z" id="Shape" fill="#546A79"></path>
                <path d="M10.3235294,28.4482759 L7.67647059,28.4482759 C7.23970588,28.4482759 6.88235294,28.0991379 6.88235294,27.6724138 L6.88235294,27.6724138 C6.88235294,27.2456897 7.23970588,26.8965517 7.67647059,26.8965517 L10.3235294,26.8965517 C10.7602941,26.8965517 11.1176471,27.2456897 11.1176471,27.6724138 L11.1176471,27.6724138 C11.1176471,28.0991379 10.7602941,28.4482759 10.3235294,28.4482759 Z" id="Shape" fill="#CBD4D8"></path>
            </g>
        </g>
    </g>
</svg>