<?xml version="1.0" encoding="UTF-8"?>
<svg width="80px" height="80px" viewBox="0 0 80 80" version="1.1" xmlns="http://www.w3.org/2000/svg" xmlns:xlink="http://www.w3.org/1999/xlink">
    <!-- Generator: Sketch 43.2 (39069) - http://www.bohemiancoding.com/sketch -->
    <title>logo</title>
    <desc>Created with Sketch.</desc>
    <defs></defs>
    <g id="Page-1" stroke="none" stroke-width="1" fill="none" fill-rule="evenodd">
        <g id="logo" fill-rule="nonzero">
            <path d="M40,0 C62.091,0 80,17.909 80,40 C80,62.091 62.091,80 40,80 C17.909,80 0,62.091 0,40 C0,17.909 17.909,0 40,0 Z" id="Shape" fill="#FFFFFF"></path>
            <g id="business-presentation" transform="translate(25.000000, 25.000000)">
                <ellipse id="Oval" fill="#A0E0E0" cx="14.5914868" cy="28.5938571" rx="1" ry="1"></ellipse>
                <g id="Group">
                    <path d="M19.0079022,2.34379592 L27.1321589,2.34379592 C27.3904888,2.34379592 27.6,2.55367347 27.6,2.81253061 C27.6,3.07138776 27.3904888,3.28126531 27.1321589,3.28126531 L26.6643788,3.28126531 L26.6643788,4.68753061 L29.0033401,4.68753061 L29.0033401,0.937530612 L19.0079022,0.937530612 L19.0079022,2.34379592 Z" id="Shape" fill="#71D1D1"></path>
                    <rect id="Rectangle-path" fill="#A0E0E0" x="9.32468432" y="0.937530612" width="9.68321792" height="1.40626531"></rect>
                    <path d="M0.935621181,0.937530612 L0.935621181,4.68753061 L3.27458248,4.68753061 L3.27458248,3.28126531 L2.80680244,3.28126531 C2.54847251,3.28126531 2.3389613,3.07138776 2.3389613,2.81253061 C2.3389613,2.55367347 2.54841141,2.34379592 2.80680244,2.34379592 L9.32468432,2.34379592 L9.32468432,0.937530612 L0.935621181,0.937530612 Z" id="Shape" fill="#D0F0F0"></path>
                    <path d="M23.8575764,4.68759184 C24.1159063,4.68759184 24.3253564,4.89746939 24.3253564,5.15632653 L24.3253564,15.9375918 C24.3253564,16.196449 24.1159063,16.4063265 23.8575764,16.4063265 L20.1152138,16.4063265 L20.1152138,18.7499388 C20.1152749,18.4911429 20.3247251,18.2813265 20.5829939,18.2813265 L23.8575764,18.2813265 C24.1159063,18.2813265 24.3253564,18.4912041 24.3253564,18.7500612 C24.3253564,19.0089184 24.1159063,19.2187959 23.8575764,19.2187959 L20.5829939,19.2187959 C20.3247251,19.2187959 20.1152749,19.0090408 20.1152138,18.7501837 L20.1152138,20.6250612 L23.8575764,20.6250612 C24.1159063,20.6250612 24.3253564,20.8349388 24.3253564,21.0937959 C24.3253564,21.3526531 24.1159063,21.5625306 23.8575764,21.5625306 L20.1152138,21.5625306 L20.1152138,23.4375918 L25.7286965,23.4375918 L25.7286965,3.28126531 L20.1152138,3.28126531 L20.1152138,4.68759184 C20.1152138,4.68753061 23.8575764,4.68753061 23.8575764,4.68759184 Z" id="Shape" fill="#FBB03B"></path>
                    <path d="M12.6304277,21.5625306 C12.3720978,21.5625306 12.1626477,21.3526531 12.1626477,21.0937959 C12.1626477,20.8349388 12.3720978,20.6250612 12.6304277,20.6250612 L20.1152138,20.6250612 L20.1152138,18.7501837 L20.1152138,18.7500612 L20.1152138,18.7499388 L20.1152138,16.4062653 L10.9286151,16.4062653 L10.9286151,18.2813265 L18.7118126,18.2813265 C18.9701426,18.2813265 19.1795927,18.4912041 19.1795927,18.7500612 C19.1795927,19.0089184 18.9701426,19.2187959 18.7118126,19.2187959 L10.9286151,19.2187959 L10.9286151,20.6571429 C11.1031772,20.7251633 11.2271487,20.8947551 11.2271487,21.0937347 C11.2271487,21.2927143 11.1031772,21.4623061 10.9286151,21.5303265 L10.9286151,23.4374694 L20.1152138,23.4374694 L20.1152138,21.5624082 L12.6304277,21.5624082 L12.6304277,21.5625306 Z" id="Shape" fill="#FCC062"></path>
                    <rect id="Rectangle-path" fill="#FCC062" x="10.9286151" y="3.28126531" width="9.18665988" height="1.40626531"></rect>
                    <path d="M10.9286151,21.530449 C10.8760692,21.5509592 10.8191242,21.5625918 10.7593686,21.5625918 L6.08132383,21.5625918 C5.82299389,21.5625918 5.61348269,21.3527143 5.61348269,21.0938571 C5.61348269,20.835 5.82293279,20.6251224 6.08132383,20.6251224 L10.7593075,20.6251224 C10.8190631,20.6251224 10.8760081,20.6367551 10.928554,20.6572653 L10.928554,19.2188571 L6.08132383,19.2188571 C5.82299389,19.2188571 5.61348269,19.0089796 5.61348269,18.7501224 C5.61348269,18.4912653 5.82293279,18.2813878 6.08132383,18.2813878 L10.9286151,18.2813878 L10.9286151,16.4063265 L6.08132383,16.4063265 C5.82299389,16.4063265 5.61348269,16.196449 5.61348269,15.9375918 L5.61348269,5.15632653 C5.61348269,4.89746939 5.82293279,4.68759184 6.08132383,4.68759184 L10.9286151,4.68759184 L10.9286151,3.28126531 L4.21020367,3.28126531 L4.21020367,23.4375918 L10.9286151,23.4375918 L10.9286151,21.530449 L10.9286151,21.530449 Z" id="Shape" fill="#FDD089"></path>
                    <path d="M21.1878208,6.69985714 C21.3705092,6.51679592 21.6666599,6.51679592 21.8493483,6.69985714 C22.0320367,6.88291837 22.0320367,7.17973469 21.8493483,7.36279592 L19.8112424,9.40506122 L19.8112424,13.1251224 L21.9863951,13.1251224 C22.2447251,13.1251224 22.4542363,13.335 22.4542363,13.5938571 C22.4542363,13.8527143 22.2447862,14.0625918 21.9863951,14.0625918 L19.8112424,14.0625918 L19.8112424,15.4688571 L23.3897963,15.4688571 L23.3897963,5.62506122 L19.8112424,5.62506122 L19.8112424,8.0792449 L21.1878208,6.69985714 Z" id="Shape" fill="#71D1D1"></path>
                    <rect id="Rectangle-path" fill="#A0E0E0" x="10.432668" y="14.0625306" width="9.37857434" height="1.40626531"></rect>
                    <path d="M16.7437882,11.815898 L14.501609,9.56920408 L10.9529939,13.1250612 L19.8111813,13.1250612 L19.8111813,9.405 L17.4052546,11.8158367 C17.2226273,11.998898 16.9264766,11.998898 16.7437882,11.815898 Z" id="Shape" fill="#A0E0E0"></path>
                    <path d="M14.1708758,8.57479592 C14.3535642,8.39179592 14.6497149,8.39173469 14.8324033,8.57479592 L17.0745214,10.8214898 L19.8111813,8.07918367 L19.8111813,5.62506122 L10.432668,5.62506122 L10.432668,12.3206939 L14.1708758,8.57479592 Z" id="Shape" fill="#A0E0E0"></path>
                    <path d="M10.432668,14.0625918 L7.95250509,14.0625918 C7.69417515,14.0625918 7.48466395,13.8527143 7.48466395,13.5938571 C7.48466395,13.335 7.69411405,13.1251224 7.95250509,13.1251224 L9.6299389,13.1251224 L10.432668,12.3207551 L10.432668,5.62506122 L6.54916497,5.62506122 L6.54916497,15.4687959 L10.432668,15.4687959 L10.432668,14.0625918 L10.432668,14.0625918 Z M7.95250509,7.03132653 L9.35590631,7.03132653 C9.61423625,7.03132653 9.82368635,7.24120408 9.82368635,7.50006122 C9.82368635,7.75891837 9.61423625,7.96879592 9.35590631,7.96879592 L7.95250509,7.96879592 C7.69417515,7.96879592 7.48466395,7.75891837 7.48466395,7.50006122 C7.48466395,7.24120408 7.69417515,7.03132653 7.95250509,7.03132653 Z M7.95250509,8.90626531 L9.35590631,8.90626531 C9.61423625,8.90626531 9.82368635,9.11614286 9.82368635,9.375 C9.82368635,9.63385714 9.61423625,9.84373469 9.35590631,9.84373469 L7.95250509,9.84373469 C7.69417515,9.84373469 7.48466395,9.63385714 7.48466395,9.375 C7.48466395,9.11620408 7.69417515,8.90626531 7.95250509,8.90626531 Z" id="Shape" fill="#D0F0F0"></path>
                    <path d="M14.9694501,28.125 C14.7115479,28.125 14.5016701,28.3353061 14.5016701,28.5937347 C14.5016701,28.8521633 14.7114868,29.0624694 14.9694501,29.0624694 C15.2273523,29.0624694 15.437169,28.8521633 15.437169,28.5937347 C15.437169,28.3353061 15.2273523,28.125 14.9694501,28.125 Z" id="Shape" fill="#71D1D1"></path>
                    <path d="M29.4711202,6.12244898e-05 L0.467780041,6.12244898e-05 C0.209450102,6.12244898e-05 0,0.209938776 0,0.468795918 L0,5.15632653 C0,5.41518367 0.209450102,5.62506122 0.467780041,5.62506122 L3.27452138,5.62506122 L3.27452138,23.4375918 L2.80674134,23.4375918 C2.54841141,23.4375918 2.3389002,23.6474694 2.3389002,23.9063265 C2.3389002,24.1651837 2.54835031,24.3750612 2.80674134,24.3750612 L14.501609,24.3750612 L14.501609,27.2682245 C13.9571487,27.4616939 13.5660489,27.9827755 13.5660489,28.5938571 C13.5660489,29.3692653 14.1956212,30 14.9694501,30 C15.743279,30 16.3728513,29.3692041 16.3728513,28.5937347 C16.3728513,27.9826531 15.9817515,27.4616327 15.4372912,27.268102 L15.4372912,24.3749388 L27.1321589,24.3749388 C27.3904888,24.3749388 27.6,24.1650612 27.6,23.9062041 C27.6,23.6473469 27.3904888,23.4374694 27.1321589,23.4374694 L26.6643788,23.4374694 L26.6643788,5.62506122 L29.4711202,5.62506122 C29.7294501,5.62506122 29.9389613,5.41518367 29.9389613,5.15632653 L29.9389613,0.468795918 C29.9389002,0.209938776 29.7294501,6.12244898e-05 29.4711202,6.12244898e-05 Z M4.21020367,3.28126531 L10.9286151,3.28126531 L20.1152138,3.28126531 L25.7286965,3.28126531 L25.7286965,23.4375918 L20.1152138,23.4375918 L10.9286151,23.4375918 L4.21020367,23.4375918 L4.21020367,3.28126531 Z M29.003279,4.68753061 L26.6643177,4.68753061 L26.6643177,3.28126531 L27.1320978,3.28126531 C27.3904277,3.28126531 27.5999389,3.07138776 27.5999389,2.81253061 C27.5999389,2.55367347 27.3904277,2.34379592 27.1320978,2.34379592 L19.0079022,2.34379592 L9.32462322,2.34379592 L2.80674134,2.34379592 C2.54841141,2.34379592 2.3389002,2.55367347 2.3389002,2.81253061 C2.3389002,3.07138776 2.54835031,3.28126531 2.80674134,3.28126531 L3.27452138,3.28126531 L3.27452138,4.68753061 L0.935621181,4.68753061 L0.935621181,0.937530612 L9.32462322,0.937530612 L19.0078411,0.937530612 L29.0032179,0.937530612 L29.0032179,4.68753061 L29.003279,4.68753061 Z M14.9694501,29.0625306 C14.7115479,29.0625306 14.5016701,28.8522245 14.5016701,28.5937959 C14.5016701,28.3353673 14.7114868,28.1250612 14.9694501,28.1250612 C15.2273523,28.1250612 15.437169,28.3353673 15.437169,28.5937959 C15.437169,28.8522245 15.2273523,29.0625306 14.9694501,29.0625306 Z" id="Shape" fill="#000000"></path>
                    <path d="M23.8575764,16.4062653 C24.1159063,16.4062653 24.3253564,16.1963878 24.3253564,15.9375306 L24.3253564,5.15632653 C24.3253564,4.89746939 24.1159063,4.68759184 23.8575764,4.68759184 L20.1152138,4.68759184 L10.9286151,4.68759184 L6.08132383,4.68759184 C5.82299389,4.68759184 5.61348269,4.89746939 5.61348269,5.15632653 L5.61348269,15.9375918 C5.61348269,16.196449 5.82293279,16.4063265 6.08132383,16.4063265 L10.9286151,16.4063265 L20.1152138,16.4063265 L23.8575764,16.4063265 L23.8575764,16.4062653 Z M6.54916497,5.62506122 L10.432668,5.62506122 L19.8112424,5.62506122 L23.3897963,5.62506122 L23.3897963,15.4687959 L19.8112424,15.4687959 L10.432668,15.4687959 L6.54916497,15.4687959 L6.54916497,5.62506122 L6.54916497,5.62506122 Z" id="Shape" fill="#000000"></path>
                    <path d="M7.95250509,7.96879592 L9.35590631,7.96879592 C9.61423625,7.96879592 9.82368635,7.75891837 9.82368635,7.50006122 C9.82368635,7.24120408 9.61423625,7.03132653 9.35590631,7.03132653 L7.95250509,7.03132653 C7.69417515,7.03132653 7.48466395,7.24120408 7.48466395,7.50006122 C7.48466395,7.75891837 7.69417515,7.96879592 7.95250509,7.96879592 Z" id="Shape" fill="#FFFFFF"></path>
                    <path d="M7.95250509,9.84379592 L9.35590631,9.84379592 C9.61423625,9.84379592 9.82368635,9.63391837 9.82368635,9.37506122 C9.82368635,9.11620408 9.61423625,8.90632653 9.35590631,8.90632653 L7.95250509,8.90632653 C7.69417515,8.90632653 7.48466395,9.11620408 7.48466395,9.37506122 C7.48466395,9.63391837 7.69417515,9.84379592 7.95250509,9.84379592 Z" id="Shape" fill="#FFFFFF"></path>
                    <path d="M19.8112424,14.0625918 L21.9863951,14.0625918 C22.2447251,14.0625918 22.4542363,13.8527143 22.4542363,13.5938571 C22.4542363,13.335 22.2447862,13.1251224 21.9863951,13.1251224 L19.8112424,13.1251224 L10.953055,13.1251224 L14.5016701,9.56926531 L16.7438493,11.8159592 C16.9265377,11.9990204 17.2226884,11.9989592 17.4053768,11.8159592 L19.8113035,9.40512245 L21.8494094,7.36285714 C22.0320978,7.17979592 22.0320978,6.88297959 21.8494094,6.69991837 C21.666721,6.51685714 21.3705703,6.51685714 21.1878819,6.69991837 L19.8113035,8.07930612 L17.0746436,10.8216122 L14.8325255,8.57491837 C14.6498371,8.39185714 14.3536864,8.39191837 14.170998,8.57491837 L10.4327902,12.3208163 L9.6300611,13.1251837 L7.95262729,13.1251837 C7.69429735,13.1251837 7.48478615,13.3350612 7.48478615,13.5939184 C7.48478615,13.8527755 7.69423625,14.0626531 7.95262729,14.0626531 L10.4327902,14.0626531 L19.8112424,14.0626531 L19.8112424,14.0625918 Z" id="Shape" fill="#000000"></path>
                    <path d="M19.1796538,18.75 C19.1796538,18.4911429 18.9702037,18.2812653 18.7118737,18.2812653 L10.9286151,18.2812653 L6.08132383,18.2812653 C5.82299389,18.2812653 5.61348269,18.4911429 5.61348269,18.75 C5.61348269,19.0088571 5.82293279,19.2187347 6.08132383,19.2187347 L10.9286151,19.2187347 L18.7118126,19.2187347 C18.9701426,19.2187347 19.1796538,19.0089184 19.1796538,18.75 Z" id="Shape" fill="#000000"></path>
                    <path d="M11.2271487,21.0938571 C11.2271487,20.8948776 11.1031772,20.7252857 10.9286151,20.6572653 C10.8760692,20.6368163 10.8191242,20.6251224 10.7593686,20.6251224 L6.08132383,20.6251224 C5.82299389,20.6251224 5.61348269,20.835 5.61348269,21.0938571 C5.61348269,21.3527143 5.82293279,21.5625918 6.08132383,21.5625918 L10.7593075,21.5625918 C10.8190631,21.5625918 10.8760081,21.5509592 10.928554,21.530449 C11.1031772,21.4623673 11.2271487,21.2928367 11.2271487,21.0938571 Z" id="Shape" fill="#000000"></path>
                    <path d="M12.1626477,21.0938571 C12.1626477,21.3527143 12.3720978,21.5625918 12.6304277,21.5625918 L20.1152138,21.5625918 L23.8575764,21.5625918 C24.1159063,21.5625918 24.3253564,21.3527143 24.3253564,21.0938571 C24.3253564,20.835 24.1159063,20.6251224 23.8575764,20.6251224 L20.1152138,20.6251224 L12.6304277,20.6251224 C12.3720978,20.625 12.1626477,20.8349388 12.1626477,21.0938571 Z" id="Shape" fill="#000000"></path>
                    <path d="M20.1152138,18.7501837 C20.1152749,19.0089796 20.3247251,19.2187959 20.5829939,19.2187959 L23.8575764,19.2187959 C24.1159063,19.2187959 24.3253564,19.0089184 24.3253564,18.7500612 C24.3253564,18.4912041 24.1159063,18.2813265 23.8575764,18.2813265 L20.5829939,18.2813265 C20.3247251,18.2813265 20.1152749,18.4910816 20.1152138,18.7499388 L20.1152138,18.7500612 L20.1152138,18.7501837 Z" id="Shape" fill="#000000"></path>
                </g>
            </g>
        </g>
    </g>
</svg>