<?xml version="1.0" encoding="UTF-8"?>
<svg width="81px" height="80px" viewBox="0 0 81 80" version="1.1" xmlns="http://www.w3.org/2000/svg" xmlns:xlink="http://www.w3.org/1999/xlink">
    <!-- Generator: Sketch 43.2 (39069) - http://www.bohemiancoding.com/sketch -->
    <title>swift-15</title>
    <desc>Created with Sketch.</desc>
    <defs>
        <linearGradient x1="59.4044171%" y1="-3.56835938%" x2="40.4900015%" y2="103.580469%" id="linearGradient-1">
            <stop stop-color="#FAAE42" offset="0%"></stop>
            <stop stop-color="#EF3E31" offset="100%"></stop>
        </linearGradient>
        <linearGradient x1="59.840562%" y1="1.97408483%" x2="43.6223274%" y2="97.7940434%" id="linearGradient-2">
            <stop stop-color="#E39F3A" offset="0%"></stop>
            <stop stop-color="#D33929" offset="100%"></stop>
        </linearGradient>
    </defs>
    <g id="Page-1" stroke="none" stroke-width="1" fill="none" fill-rule="evenodd">
        <g id="swift-15" fill-rule="nonzero">
            <path d="M17.78125,0 L62.09375,0 C64.25,0 66.34375,0.34375 68.375,1.0625 C71.3125,2.125 73.96875,4 75.96875,6.4375 C78,8.875 79.34375,11.875 79.8125,15 C80,16.15625 80.03125,17.3125 80.03125,18.46875 L80.03125,61.6875 C80.03125,63.0625 79.96875,64.46875 79.6875,65.8125 C79.0625,68.90625 77.59375,71.8125 75.46875,74.15625 C73.375,76.5 70.625,78.25 67.65625,79.1875 C65.84375,79.75 63.96875,80 62.0625,80 C61.21875,80 17.65625,80 17,79.96875 C13.8125,79.8125 10.65625,78.78125 8,77 C5.40625,75.25 3.28125,72.8125 1.90625,70 C0.71875,67.59375 0.125,64.90625 0.125,62.21875 L0.125,17.78125 C0.0625,15.125 0.625,12.5 1.78125,10.125 C3.125,7.3125 5.21875,4.84375 7.8125,3.09375 C10.46875,1.28125 13.59375,0.21875 16.78125,0.0625 C17.09375,0 17.4375,0 17.78125,0 Z" id="Shape" fill="url(#linearGradient-1)"></path>
            <path d="M67.5,65.4375 C67.21875,65 66.90625,64.5625 66.5625,64.15625 C65.78125,63.21875 64.875,62.40625 63.875,61.71875 C62.625,60.875 61.15625,60.34375 59.65625,60.28125 C58.59375,60.21875 57.53125,60.40625 56.53125,60.78125 C55.53125,61.125 54.5625,61.625 53.625,62.125 C52.53125,62.6875 51.4375,63.25 50.28125,63.71875 C48.90625,64.28125 47.46875,64.71875 46,65.03125 C44.15625,65.375 42.28125,65.5 40.4375,65.46875 C37.09375,65.40625 33.75,64.90625 30.5625,63.96875 C27.75,63.125 25.0625,61.96875 22.53125,60.5 C20.3125,59.21875 18.25,57.75 16.3125,56.09375 C14.71875,54.71875 13.25,53.25 11.875,51.6875 C10.9375,50.59375 10.03125,49.4375 9.1875,48.25 C8.84375,47.78125 8.53125,47.28125 8.25,46.78125 L0,37.875 L0,17.71875 C0,7.9375 7.90625,0 17.6875,0 L33.46875,0 L45.15625,11.875 C71.53125,29.8125 63,49.59375 63,49.59375 C63,49.59375 70.5,58.03125 67.5,65.4375 L67.5,65.4375 Z" id="Shape" fill="url(#linearGradient-2)"></path>
            <path d="M45.21875,11.875 C71.59375,29.8125 63.0625,49.59375 63.0625,49.59375 C63.0625,49.59375 70.5625,58.0625 67.53125,65.46875 C67.53125,65.46875 64.4375,60.28125 59.25,60.28125 C54.25,60.28125 51.3125,65.46875 41.25,65.46875 C18.84375,65.46875 8.25,46.75 8.25,46.75 C28.4375,60.03125 42.21875,50.625 42.21875,50.625 C33.125,45.34375 13.78125,20.09375 13.78125,20.09375 C30.625,34.4375 37.90625,38.21875 37.90625,38.21875 C33.5625,34.625 21.375,17.0625 21.375,17.0625 C31.125,26.9375 50.5,40.71875 50.5,40.71875 C56,25.46875 45.21875,11.875 45.21875,11.875 Z" id="Shape" fill="#FFFFFF"></path>
        </g>
    </g>
</svg>