<?xml version="1.0" encoding="UTF-8"?>
<svg width="80px" height="80px" viewBox="0 0 80 80" version="1.1" xmlns="http://www.w3.org/2000/svg" xmlns:xlink="http://www.w3.org/1999/xlink">
    <!-- Generator: Sketch 43.2 (39069) - http://www.bohemiancoding.com/sketch -->
    <title>logo</title>
    <desc>Created with Sketch.</desc>
    <defs></defs>
    <g id="Page-1" stroke="none" stroke-width="1" fill="none" fill-rule="evenodd">
        <g id="logo" fill-rule="nonzero">
            <path d="M40,0 C62.091,0 80,17.909 80,40 C80,62.091 62.091,80 40,80 C17.909,80 0,62.091 0,40 C0,17.909 17.909,0 40,0 Z" id="Shape" fill="#FFFFFF"></path>
            <g id="maps-and-flags" transform="translate(26.000000, 25.000000)">
                <path d="M0.98023494,24.9579492 C0.934522088,23.6817773 1.22382329,22.1964258 1.83992771,20.5432617 C3.12943775,17.083418 5.68819277,13.317832 9.04497189,9.94025391 L8.36987751,9.26109375 C4.91887751,12.7335937 2.28238153,16.6204687 0.946110442,20.2060547 C-0.436339357,23.9154492 -0.268395582,26.8933594 1.41896185,28.5912305 C1.51219277,28.6849805 1.63442369,28.7319141 1.75653815,28.7319141 C1.87865261,28.7319141 2.00088353,28.6850391 2.09411446,28.5912305 C2.28051807,28.4036719 2.28051807,28.0995703 2.09411446,27.9120703 C1.40003614,27.21375 1.02536546,26.2198828 0.98023494,24.9579492 Z" id="Shape" fill="#B4E5EA"></path>
                <ellipse id="Oval" fill="#609399" cx="14.5002329" cy="15.4293164" rx="12.0923012" ry="12.1672266"></ellipse>
                <path d="M27.5809799,2.26705078 C26.1474598,0.824648437 23.7954317,0.486328125 20.8596767,1.26996094 L21.2635221,0.790957031 C21.4340863,0.588632812 21.4093956,0.285585937 21.2083173,0.114023437 C21.007239,-0.0575390625 20.7061165,-0.0326953125 20.5356104,0.169570312 L19.0511365,1.93025391 C18.9478313,2.05271484 18.912251,2.21900391 18.9563333,2.37333984 C19.000241,2.52767578 19.1180462,2.64972656 19.2700924,2.69853516 L21.4563313,3.40013672 C21.5045482,3.41560547 21.5534639,3.42298828 21.601506,3.42298828 C21.8036908,3.42298828 21.9914337,3.29267578 22.0561888,3.08853516 C22.1363173,2.83582031 21.9976647,2.56558594 21.746506,2.48501953 L20.9688052,2.23541016 C22.0645743,1.93107422 23.0707229,1.79291016 23.9703635,1.82560547 C25.2245261,1.87101562 26.2122731,2.24806641 26.9061185,2.94626953 C27.6000221,3.64447266 27.974751,4.63833984 28.0198815,5.90027344 C28.0655944,7.17644531 27.7762932,8.66173828 27.1601888,10.3149609 C25.8706787,13.7748047 23.3119237,17.5403906 19.9551446,20.9179687 C16.5984237,24.2955469 12.8560843,26.8701562 9.41754618,28.1675977 C7.77456225,28.7875781 6.29824096,29.0787891 5.03004418,29.0326758 C3.77588153,28.9872656 2.78813454,28.6102148 2.09428916,27.9120117 C1.90788554,27.7244531 1.60571486,27.7243945 1.41919478,27.9120117 C1.23279116,28.0995703 1.23279116,28.4036719 1.41919478,28.5911719 C2.35097992,29.5286719 3.67036345,30.0000586 5.28615261,30 C6.59651004,30 8.10188956,29.6898633 9.75279317,29.0669531 C13.3161827,27.7224023 17.179239,25.0695703 20.6303554,21.5970703 C24.0814719,18.1245703 26.7179096,14.2376953 28.0541225,10.6521094 C29.4362811,6.94271484 29.2683373,3.96480469 27.5809799,2.26705078 Z" id="Shape" fill="#B4E5EA"></path>
            </g>
        </g>
    </g>
</svg>