<?xml version="1.0" encoding="UTF-8"?>
<svg width="90px" height="80px" viewBox="0 0 90 80" version="1.1" xmlns="http://www.w3.org/2000/svg" xmlns:xlink="http://www.w3.org/1999/xlink">
    <!-- Generator: Sketch 43.2 (39069) - http://www.bohemiancoding.com/sketch -->
    <title>Xamagon</title>
    <desc>Created with Sketch.</desc>
    <defs></defs>
    <g id="Page-1" stroke="none" stroke-width="1" fill="none" fill-rule="evenodd">
        <g id="Xamagon" fill-rule="nonzero" fill="#FFFFFF">
            <path d="M25.9430938,0 C23.5147767,0.00514945133 21.1377279,1.38355313 19.9152973,3.48635519 L0.902545912,36.5136319 C-0.300848637,38.622064 -0.300848637,41.3779363 0.902545912,43.4863681 L19.9152973,76.5136446 C21.1378564,78.6164637 23.5147767,79.9952368 25.9430938,80 L63.9684623,80 C66.3967795,79.9948503 68.7736984,78.6164637 69.9962577,76.5136446 L89.009006,43.4863681 C90.2123993,41.3779363 90.2122754,38.622064 89.009006,36.5136319 L69.9962577,3.48635519 C68.7736984,1.38355313 66.3967795,0.00476325664 63.9684623,0 L25.9430938,0 L25.9430938,0 Z M26.2881759,19.3213567 C26.3404118,19.3162072 26.3951995,19.3162072 26.4475981,19.3213567 L33.0064022,19.3213567 C33.2967309,19.3273643 33.5783507,19.4951504 33.7233352,19.7471643 L44.8495582,39.5741883 C44.9055618,39.6722166 44.9416474,39.7814358 44.9553402,39.8935398 C44.9690414,39.7814103 45.0050924,39.6721819 45.0611221,39.5741883 L56.1607143,19.7471643 C56.3102995,19.4875121 56.6051115,19.3187991 56.9041558,19.3213567 L63.4629628,19.3213567 C64.0437522,19.3265061 64.478691,20.0580278 64.2065274,20.5721914 L53.3459936,40.0000042 L64.2065274,59.4012028 C64.5044517,59.9183193 64.0588106,60.6837586 63.4629628,60.6786435 L56.9041558,60.6786435 C56.5998853,60.6760687 56.3033303,60.4956835 56.1607143,60.2262216 L45.0611221,40.3991979 C45.0051179,40.3011696 44.9690329,40.1919412 44.9553402,40.0798464 C44.9416389,40.1919667 44.9055873,40.3012127 44.8495582,40.3991979 L33.7233352,60.2262216 C33.584953,60.4880623 33.3018346,60.6667221 33.0064022,60.6786435 L26.4475981,60.6786435 C25.8517495,60.6837926 25.406229,59.9183193 25.7041533,59.4012028 L36.5646839,40.0000042 L25.7041533,20.5721914 C25.4438131,20.1030769 25.7614414,19.4214876 26.2881759,19.3213567 L26.2881759,19.3213567 Z" id="Logo"></path>
        </g>
    </g>
</svg>